<?xml version="1.0" standalone="no"?>
<!DOCTYPE svg PUBLIC "-//W3C//DTD SVG 20010904//EN"
 "http://www.w3.org/TR/2001/REC-SVG-20010904/DTD/svg10.dtd">
<svg version="1.0" xmlns="http://www.w3.org/2000/svg"
 width="299.000000pt" height="296.000000pt" viewBox="0 0 299.000000 296.000000"
 preserveAspectRatio="xMidYMid meet">
<metadata>
Created by potrace 1.10, written by Peter Selinger 2001-2011
</metadata>
<g transform="translate(0.000000,296.000000) scale(0.100000,-0.100000)"
fill="#000000" stroke="none">
<path d="M160 2200 l0 -700 187 0 186 0 -6 478 c-4 262 -9 503 -12 535 -10 94
11 66 30 -40 9 -54 67 -294 129 -533 l112 -435 196 -3 197 -2 10 37 c34 127
222 910 231 966 7 37 15 67 19 67 3 0 5 -241 3 -535 l-4 -535 206 0 206 0 2
700 3 700 -312 0 c-172 0 -313 -2 -313 -5 0 -3 -43 -186 -95 -408 -52 -221
-97 -431 -101 -467 -9 -92 -21 -106 -29 -35 -3 33 -54 252 -112 488 l-105 427
-314 0 -314 0 0 -700z m599 633 c12 -31 179 -701 206 -825 9 -42 22 -82 30
-88 18 -15 44 -6 51 17 3 10 9 27 14 38 4 11 16 61 25 110 9 50 23 115 31 145
7 30 23 96 34 145 11 50 25 106 30 125 5 19 23 94 40 165 17 72 36 145 41 163
l11 32 269 0 269 0 0 -659 0 -660 -22 -3 c-13 -2 -86 -1 -163 2 l-140 5 -1
503 c-1 489 -2 504 -22 530 l-20 27 -24 -23 c-16 -14 -29 -43 -37 -80 -15 -69
-58 -249 -113 -472 -22 -91 -42 -172 -44 -180 -2 -8 -20 -81 -40 -162 l-36
-148 -158 0 c-114 0 -160 3 -167 13 -11 14 -28 73 -82 287 -22 85 -56 216 -76
290 -39 141 -62 241 -71 300 -11 69 -35 138 -55 156 -21 19 -21 18 -46 -11
-21 -26 -23 -37 -19 -81 10 -91 16 -716 9 -834 l-8 -115 -135 0 -135 0 -3 645
c-1 355 0 651 3 658 3 9 67 12 273 12 l270 0 11 -27z"/>
<path d="M772 1468 c3 -7 78 -322 168 -700 l164 -688 238 0 c131 0 238 3 238
6 0 3 49 193 109 422 61 229 113 445 117 480 8 78 24 81 23 5 0 -40 31 -189
103 -485 l103 -428 223 0 c169 0 224 3 227 13 2 6 82 321 177 700 l174 687
-208 0 c-114 0 -208 -2 -208 -4 0 -2 -27 -185 -60 -407 -32 -222 -62 -446 -66
-496 -4 -51 -10 -93 -14 -93 -4 0 -10 30 -13 67 -3 37 -47 262 -98 500 l-93
433 -230 -2 -230 -3 -113 -430 c-62 -236 -116 -460 -120 -497 -3 -38 -9 -68
-13 -68 -4 0 -10 35 -13 78 -5 68 -115 878 -123 910 -3 9 -58 12 -235 12 -181
0 -230 -3 -227 -12z m427 -65 c6 -21 11 -49 11 -62 0 -14 5 -50 10 -80 20
-103 90 -619 90 -658 0 -51 23 -125 43 -137 19 -12 57 17 57 44 0 16 35 160
75 305 9 33 36 139 61 235 25 96 52 200 60 230 9 30 22 79 30 108 l15 52 188
0 c145 0 191 -3 200 -13 6 -8 29 -101 51 -208 41 -195 74 -351 110 -509 10
-47 22 -108 26 -137 6 -52 35 -113 54 -113 18 0 39 45 49 110 6 36 20 133 31
215 21 153 49 341 77 520 8 55 19 108 25 118 8 15 26 17 158 17 l150 0 0 -27
c0 -16 -13 -80 -29 -143 -61 -241 -281 -1106 -287 -1127 -6 -23 -8 -23 -195
-23 l-188 0 -12 43 c-11 39 -31 121 -115 462 -19 77 -44 187 -55 245 -12 58
-26 113 -30 122 -5 10 -9 26 -9 37 0 10 -7 24 -16 31 -28 24 -50 -17 -87 -165
-33 -133 -100 -391 -166 -644 -17 -63 -36 -118 -43 -123 -22 -14 -384 -10
-396 5 -6 6 -18 41 -27 77 -14 58 -68 284 -80 335 -2 11 -9 38 -14 60 -6 22
-26 108 -46 190 -78 334 -126 532 -135 566 -23 83 -32 79 170 79 l179 0 10
-37z"/>
</g>
</svg>
