<?xml version="1.0" standalone="no"?>
<!DOCTYPE svg PUBLIC "-//W3C//DTD SVG 20010904//EN"
 "http://www.w3.org/TR/2001/REC-SVG-20010904/DTD/svg10.dtd">
<svg version="1.0" xmlns="http://www.w3.org/2000/svg"
 width="897.000000pt" height="888.000000pt" viewBox="0 0 897.000000 888.000000"
 preserveAspectRatio="xMidYMid meet">
<metadata>
Created by potrace 1.10, written by Peter Selinger 2001-2011
</metadata>
<g transform="translate(0.000000,888.000000) scale(0.100000,-0.100000)"
fill="#000000" stroke="none">
<path d="M465 8678 c-3 -7 -4 -951 -3 -2098 l3 -2085 550 0 550 0 0 1140 c0
767 -5 1263 -14 1515 -16 451 -19 500 -25 516 -6 17 20 38 39 30 10 -3 15 -19
15 -43 0 -21 7 -65 15 -98 8 -33 14 -77 15 -98 0 -21 7 -54 15 -74 8 -19 15
-51 15 -70 0 -18 6 -62 14 -96 8 -34 22 -98 31 -142 10 -44 23 -102 31 -130 7
-27 19 -77 28 -110 22 -92 47 -185 61 -235 20 -70 36 -131 44 -175 4 -23 11
-46 15 -53 4 -7 11 -33 16 -60 12 -63 36 -160 49 -197 5 -16 17 -58 25 -92 26
-104 48 -185 61 -233 17 -58 34 -125 45 -175 12 -55 30 -123 43 -165 6 -19 14
-53 18 -75 4 -22 17 -71 28 -110 12 -38 25 -88 30 -110 18 -84 34 -141 47
-173 8 -18 14 -43 14 -55 0 -12 6 -42 14 -67 17 -55 35 -122 45 -175 5 -22 13
-53 20 -68 6 -16 11 -41 11 -57 0 -15 8 -37 18 -49 l17 -21 584 2 585 3 8 30
c14 46 38 145 48 195 10 52 27 120 43 170 6 19 14 53 18 75 8 44 25 112 40
162 6 18 14 54 19 80 10 54 26 121 43 173 6 19 14 53 18 75 4 22 12 54 17 70
6 17 15 53 20 80 6 28 17 77 25 110 55 219 76 306 87 360 12 56 29 122 46 175
8 25 14 55 14 66 0 12 7 38 15 57 8 20 15 50 15 67 0 17 5 40 11 51 6 11 14
41 19 67 9 46 18 85 45 187 8 28 19 73 25 100 11 52 30 129 56 230 8 33 19 80
23 105 5 25 14 61 20 80 6 19 11 48 11 65 0 16 7 48 15 70 8 22 14 57 15 78 0
21 5 48 11 59 6 11 14 50 17 86 5 45 12 68 24 76 31 19 37 -3 28 -99 -21 -207
-30 -903 -28 -1970 l3 -1130 620 0 620 0 0 2095 0 2095 -930 0 -930 0 -7 -40
c-6 -38 -11 -56 -43 -180 -29 -108 -37 -142 -45 -190 -5 -27 -13 -63 -18 -80
-5 -16 -17 -66 -27 -110 -9 -44 -23 -100 -31 -125 -8 -25 -14 -54 -14 -65 0
-11 -6 -40 -14 -65 -8 -25 -21 -76 -29 -115 -39 -178 -50 -222 -59 -254 -6
-19 -17 -62 -24 -95 -8 -34 -21 -88 -30 -121 -8 -33 -19 -83 -23 -112 -5 -28
-12 -57 -16 -63 -4 -6 -11 -35 -15 -63 -8 -49 -13 -71 -45 -192 -29 -108 -37
-142 -45 -190 -5 -27 -13 -63 -18 -80 -5 -16 -17 -66 -27 -110 -9 -44 -22
-100 -27 -125 -6 -25 -14 -74 -18 -110 -5 -36 -13 -90 -19 -120 -6 -30 -18
-108 -27 -172 -12 -84 -21 -118 -31 -118 -9 0 -13 17 -13 63 0 34 -7 87 -15
117 -8 30 -15 78 -15 105 0 28 -5 66 -10 85 -6 19 -15 62 -20 95 -9 56 -16 85
-55 240 -8 33 -21 87 -30 120 -8 33 -21 87 -30 120 -8 33 -22 89 -31 125 -9
36 -23 92 -31 125 -8 33 -22 87 -30 120 -8 33 -21 85 -28 115 -8 30 -23 89
-35 130 -12 41 -24 93 -29 115 -4 22 -12 56 -18 75 -16 49 -33 118 -42 165 -4
22 -12 56 -18 75 -16 49 -33 118 -42 165 -4 22 -12 56 -18 75 -16 49 -33 118
-42 165 -4 22 -12 56 -18 75 -6 19 -16 55 -23 80 -16 68 -36 148 -54 220 -9
36 -20 79 -24 95 l-8 30 -942 3 c-749 2 -944 0 -947 -10z"/>
<path d="M2304 4417 c-2 -7 2 -30 11 -50 8 -20 15 -50 15 -67 0 -17 5 -40 11
-51 6 -11 14 -41 19 -67 5 -26 18 -85 30 -132 11 -47 25 -104 30 -128 5 -23
14 -51 20 -61 5 -11 10 -33 10 -49 0 -15 6 -48 14 -73 7 -24 21 -80 31 -124 9
-44 23 -102 30 -130 26 -99 36 -141 45 -187 5 -26 13 -56 19 -67 6 -11 11 -33
11 -49 0 -15 6 -48 14 -73 7 -24 21 -80 31 -124 9 -44 22 -96 28 -115 6 -19
14 -53 18 -75 8 -40 18 -83 44 -180 7 -27 21 -86 30 -130 10 -44 24 -100 31
-124 8 -25 14 -58 14 -73 0 -16 5 -38 11 -49 6 -11 14 -41 19 -67 5 -26 18
-85 30 -132 44 -182 52 -216 60 -255 5 -22 13 -53 19 -68 6 -16 11 -42 11 -58
0 -17 5 -39 11 -50 6 -11 14 -41 19 -67 9 -46 18 -87 45 -187 31 -120 37 -143
45 -190 5 -27 13 -63 18 -80 5 -16 17 -66 27 -110 9 -44 23 -102 30 -130 26
-99 36 -141 45 -187 5 -26 13 -56 19 -67 6 -11 11 -32 11 -47 0 -15 7 -50 14
-78 31 -105 46 -173 46 -199 0 -19 6 -28 23 -32 12 -3 335 -4 717 -3 l694 3 8
30 c4 17 17 64 28 105 21 74 43 161 59 230 4 19 13 45 19 57 7 12 12 36 12 53
0 17 5 41 12 53 6 12 15 40 19 62 9 49 27 120 41 160 5 17 16 57 24 90 8 33
19 76 24 95 5 19 14 55 20 80 6 25 16 59 22 75 6 17 14 48 18 70 12 54 30 124
42 160 5 17 16 57 24 90 8 33 19 76 24 95 5 19 14 55 20 80 21 81 42 154 56
200 8 25 14 55 14 68 0 13 5 33 11 44 7 12 18 49 26 82 7 34 18 77 23 96 5 19
16 63 24 97 7 34 17 67 22 74 4 7 11 31 15 54 8 43 23 101 45 179 8 26 14 65
14 85 0 20 7 61 15 91 8 30 15 78 15 105 0 55 8 95 20 95 12 0 40 -165 40
-237 0 -65 15 -159 45 -268 7 -27 21 -86 30 -130 17 -79 33 -143 61 -241 8
-28 14 -63 14 -78 0 -15 5 -36 11 -47 6 -11 14 -41 19 -67 9 -46 18 -85 45
-187 8 -27 19 -72 25 -100 6 -27 17 -77 26 -110 8 -33 19 -79 24 -103 5 -23
14 -51 20 -61 5 -11 10 -32 10 -47 0 -15 6 -50 14 -78 8 -28 21 -78 30 -111 8
-33 20 -80 27 -105 7 -25 16 -65 20 -90 8 -49 24 -114 42 -170 6 -19 14 -53
18 -75 8 -39 18 -81 44 -180 30 -113 37 -142 45 -187 5 -26 13 -56 19 -67 6
-11 11 -37 11 -58 0 -22 5 -44 12 -51 9 -9 173 -12 675 -12 659 0 662 0 673
21 6 11 15 41 20 67 11 57 28 127 42 167 6 17 14 48 18 70 11 51 29 120 43
165 6 19 14 53 18 75 9 47 26 116 42 165 6 19 14 53 18 75 10 53 57 240 71
285 6 19 15 53 19 75 5 22 17 74 29 115 12 41 27 100 35 130 37 152 46 189 59
240 8 30 21 84 30 120 9 36 23 90 30 120 14 54 29 112 60 240 9 36 21 81 26
100 5 19 14 55 20 80 6 25 16 59 22 75 6 17 14 50 18 75 10 54 28 124 42 165
6 17 14 50 19 75 4 25 15 72 23 105 8 33 20 80 26 105 7 25 16 59 22 75 6 17
14 50 18 75 10 53 28 123 42 165 6 17 14 48 18 70 12 55 29 122 46 175 8 25
14 55 14 68 0 13 5 32 11 43 6 11 14 41 19 67 10 53 27 120 43 172 6 19 14 53
18 75 9 49 26 115 45 175 7 25 15 63 16 85 l3 40 -613 3 c-485 2 -613 0 -616
-10 -12 -46 -29 -146 -37 -221 -4 -48 -11 -92 -14 -97 -3 -5 -13 -62 -21 -127
-9 -65 -20 -143 -24 -173 -4 -30 -13 -95 -20 -145 -6 -49 -18 -118 -26 -152
-8 -34 -14 -84 -14 -110 0 -26 -7 -73 -15 -103 -8 -30 -15 -78 -15 -105 0 -28
-5 -66 -10 -85 -6 -19 -15 -64 -19 -100 -5 -36 -14 -105 -21 -155 -6 -49 -18
-118 -26 -152 -8 -34 -14 -84 -14 -110 0 -26 -7 -73 -15 -103 -8 -30 -15 -77
-15 -103 0 -26 -6 -76 -14 -110 -16 -68 -32 -182 -46 -322 -5 -49 -13 -119
-19 -155 -6 -36 -11 -97 -11 -136 0 -102 -10 -164 -26 -164 -8 0 -14 3 -15 8
0 4 -3 16 -5 27 -3 11 -9 61 -14 110 -5 50 -14 106 -19 125 -6 19 -11 57 -11
85 0 28 -5 66 -11 85 -6 19 -15 55 -20 80 -14 77 -30 153 -45 211 -8 30 -14
69 -14 85 -1 16 -7 40 -15 54 -8 14 -14 40 -15 58 0 18 -6 54 -14 80 -17 58
-34 139 -45 213 -5 30 -13 65 -20 77 -6 11 -11 32 -11 46 0 15 -6 52 -14 84
-19 76 -35 147 -46 202 -5 25 -14 68 -20 95 -6 28 -18 84 -27 125 -8 41 -19
93 -25 115 -5 22 -13 60 -18 85 -5 25 -13 63 -18 85 -6 22 -18 78 -27 125 -9
47 -22 108 -30 135 -8 28 -16 66 -19 85 -2 19 -14 76 -26 125 -11 50 -25 115
-29 146 -5 30 -13 65 -20 77 -6 11 -11 36 -11 54 0 19 -5 39 -12 46 -9 9 -176
12 -689 12 -580 0 -678 -2 -689 -15 -6 -8 -18 -42 -26 -77 -8 -35 -19 -79 -24
-98 -5 -19 -15 -60 -21 -90 -6 -30 -17 -71 -24 -90 -12 -34 -29 -99 -45 -170
-5 -19 -13 -48 -18 -65 -12 -34 -29 -100 -42 -160 -13 -60 -30 -126 -42 -160
-5 -16 -13 -46 -18 -65 -18 -83 -33 -137 -46 -168 -8 -18 -14 -44 -14 -58 0
-13 -7 -41 -15 -61 -8 -19 -15 -46 -15 -60 0 -13 -5 -33 -11 -44 -6 -11 -14
-41 -19 -67 -5 -26 -18 -78 -29 -117 -12 -38 -25 -88 -30 -110 -5 -22 -14 -53
-19 -70 -6 -16 -16 -50 -22 -75 -6 -25 -15 -61 -20 -80 -5 -19 -16 -62 -24
-95 -8 -33 -25 -96 -36 -140 -12 -44 -26 -98 -31 -120 -5 -22 -18 -71 -30
-110 -11 -38 -24 -91 -29 -117 -5 -27 -12 -54 -17 -60 -4 -7 -10 -38 -14 -68
-3 -30 -11 -82 -17 -115 -6 -33 -19 -106 -29 -163 -10 -61 -21 -101 -27 -99
-7 2 -12 46 -14 108 -1 57 -7 138 -12 179 -5 41 -12 116 -16 165 -3 50 -12
115 -20 146 -8 31 -14 79 -14 105 0 27 -7 74 -15 104 -8 30 -15 78 -15 105 0
28 -7 75 -15 105 -8 30 -15 78 -15 105 0 28 -7 75 -15 105 -8 30 -15 78 -15
105 0 28 -5 66 -11 85 -5 19 -14 73 -19 120 -5 47 -16 130 -24 185 -16 106
-37 258 -55 390 -6 44 -16 107 -22 140 -5 33 -14 94 -19 135 -13 106 -29 216
-40 280 -5 30 -15 101 -21 158 -6 56 -14 115 -18 130 l-7 27 -688 3 c-558 2
-688 0 -692 -11z"/>
</g>
</svg>
